<?xml version="1.0" standalone="no"?>
<!DOCTYPE svg PUBLIC "-//W3C//DTD SVG 20010904//EN"
 "http://www.w3.org/TR/2001/REC-SVG-20010904/DTD/svg10.dtd">
<svg version="1.0" xmlns="http://www.w3.org/2000/svg"
 width="200.000000pt" height="200.000000pt" viewBox="0 0 200.000000 200.000000"
 preserveAspectRatio="xMidYMid meet">

<g transform="translate(0.000000,200.000000) scale(0.100000,-0.100000)"
fill="#000000" stroke="none">
<path d="M543 1496 c-17 -8 -36 -23 -42 -35 -6 -11 -11 -73 -11 -140 l0 -120
35 -28 c24 -20 35 -36 35 -55 0 -42 19 -43 59 -4 l37 36 112 0 c92 0 112 -3
112 -15 0 -28 45 -46 107 -43 75 4 71 22 -6 26 -37 2 -64 8 -71 17 -10 12 -9
15 4 15 33 0 74 30 85 61 6 18 11 58 11 90 l0 59 133 0 c92 0 139 -4 150 -13
15 -10 17 -27 15 -112 -3 -98 -4 -100 -30 -113 -18 -8 -28 -21 -28 -34 0 -21
-1 -21 -28 5 -23 22 -37 27 -81 27 -70 0 -65 -24 6 -28 42 -2 55 -8 83 -37 42
-43 50 -44 50 -4 0 22 9 40 30 59 30 28 30 30 30 129 0 142 2 141 -184 141
l-143 0 -7 38 c-3 22 -16 48 -32 63 -25 23 -30 24 -212 27 -144 1 -194 -1
-219 -12z m412 -41 c23 -23 25 -31 25 -130 0 -147 3 -145 -187 -145 -146 0
-147 0 -175 -27 l-28 -27 0 27 c0 20 -5 27 -19 27 -11 0 -29 12 -40 26 -18 23
-21 41 -21 126 0 92 2 101 25 123 24 25 26 25 210 25 184 0 186 0 210 -25z"/>
<path d="M593 1408 c3 -10 42 -13 152 -13 110 0 149 3 153 13 3 9 -32 12 -153
12 -121 0 -156 -3 -152 -12z"/>
<path d="M593 1328 c3 -10 42 -13 152 -13 110 0 149 3 153 13 3 9 -32 12 -153
12 -121 0 -156 -3 -152 -12z"/>
<path d="M593 1248 c2 -9 28 -13 82 -13 54 0 80 4 83 13 3 9 -18 12 -83 12
-65 0 -86 -3 -82 -12z"/>
<path d="M515 1030 c-15 -16 -17 -33 -13 -105 3 -63 1 -88 -9 -96 -18 -16 -19
-163 0 -157 7 3 13 29 15 68 3 73 15 95 42 80 23 -13 66 -13 89 -1 22 12 29 7
80 -61 l43 -57 66 -3 c64 -3 67 -4 67 -28 0 -24 -2 -25 -81 -28 l-81 -3 -43
57 c-29 38 -45 53 -52 46 -7 -7 -1 -23 21 -50 28 -36 31 -47 31 -106 l0 -66
-89 0 -90 0 -3 47 c-2 27 -8 48 -16 51 -10 3 -12 -11 -10 -59 l3 -64 515 0
515 0 3 64 c2 48 0 62 -10 59 -8 -3 -14 -24 -16 -51 l-3 -47 -90 0 -89 0 0 66
c0 59 3 70 31 106 22 27 28 43 21 50 -7 7 -23 -8 -52 -46 l-43 -57 -81 3 c-79
3 -81 4 -81 28 0 24 3 25 67 28 l66 3 43 57 c51 68 58 73 80 61 23 -12 66 -12
89 1 27 15 39 -7 42 -80 2 -39 8 -65 16 -68 18 -6 17 141 -1 157 -10 8 -12 33
-9 96 6 111 -4 125 -93 125 -88 0 -98 -14 -94 -122 l4 -83 -45 -57 c-38 -49
-50 -58 -77 -58 -32 0 -33 1 -33 40 0 30 -7 47 -25 65 -13 14 -29 25 -35 25
-6 0 -10 36 -10 95 l0 95 -78 0 c-104 0 -114 -11 -111 -109 2 -67 1 -71 -29
-100 -26 -23 -32 -37 -32 -70 0 -40 -1 -41 -32 -41 -28 0 -40 9 -78 58 l-45
57 4 83 c4 108 -6 122 -94 122 -49 0 -66 -4 -80 -20z m126 -10 c25 -14 27 -55
2 -45 -32 12 -36 10 -44 -19 -9 -32 -24 -46 -51 -46 -26 0 -26 94 0 109 22 13
68 14 93 1z m427 -17 c3 -22 0 -23 -67 -23 -55 0 -71 3 -71 15 0 23 31 35 85
32 43 -2 50 -5 53 -24z m383 17 c27 -15 28 -110 2 -110 -28 0 -43 14 -52 46
-8 29 -12 31 -43 19 -14 -5 -18 -2 -18 13 0 37 66 56 111 32z m-807 -76 c21
-8 21 -62 -1 -86 -22 -24 -75 -23 -98 2 -18 20 -17 20 8 20 29 0 67 31 67 55
0 17 2 18 24 9z m426 -20 c0 -28 -16 -65 -34 -76 -20 -13 -69 -8 -88 9 -11 10
-18 30 -18 55 l0 38 70 0 c68 0 70 -1 70 -26z m310 11 c0 -24 38 -55 67 -55
25 0 26 0 8 -20 -22 -24 -72 -26 -97 -3 -21 18 -25 79 -5 86 21 9 27 7 27 -8z
m-436 -110 c26 -20 71 -19 106 2 27 15 30 15 54 -1 20 -13 26 -25 26 -54 0
-31 -5 -40 -30 -54 -23 -13 -30 -24 -30 -48 l0 -30 -70 0 -70 0 0 30 c0 24 -7
35 -30 48 -25 14 -30 23 -30 54 0 27 6 41 22 52 27 19 28 19 52 1z m346 -260
l0 -45 -290 0 -290 0 0 45 0 45 290 0 290 0 0 -45z"/>
</g>
</svg>
