<svg height="100" viewBox="0 0 105 105" width="100" xmlns="http://www.w3.org/2000/svg"><g fill="none"><path d="m49.968254 99.9546485c-26.943143 0-49.7868481-22.9496478-49.7868481-50.185941 0-27.491204 22.2001893-49.5873016 49.7868481-49.5873016 27.5895139 0 49.9863945 22.1986647 49.9863945 49.5873016 0 27.640834-22.4496411 50.185941-49.9863945 50.185941z" fill="#003e95"/><path d="m49.968254 92.6984127c23.522336 0 42.7301587-19.2895029 42.7301587-42.9297052 0-23.3666181-19.1337847-42.33106578-42.7301587-42.33106578-23.5867647 0-42.53061228 18.85502418-42.53061228 42.33106578 0 23.2362814 19.60251278 42.9297052 42.53061228 42.9297052z" fill="#fff"/><path d="m75.9324478 63.8428978-5.2471656-11.4058957-2.61678.0453514.1814059 10.3038549c.0272109 1.5510204-1.3151927 2.399093-3.0249433 2.4263039-1.4421769.0272109-2.9931973-.6802721-3.015873-2.3174603l-.4671202-26.7256236c-.0272109-1.3696145.7619047-2.6575964 2.3854875-2.6893424l8.4807256-.1451247c4.4172336-.0770976 8.9705216 2.5804988 9.0793651 8.7800453.0816327 4.6530612-2.3945578 7.4376417-5.2562358 8.9433107l4.9569161 10.1315192c1.0294784 2.0816327-1.4648526 3.7641724-3.2653061 3.8004535-.9070295.0136055-1.723356-.2448979-2.1904762-1.1519274zm-19.2743764 1.4285714-11.5464853.2040816c-1.4421769.0272109-3.0793651-.7664399-3.106576-2.3129252l-.462585-26.6349206c-.0226757-1.3696145.8526077-2.6621315 2.3854875-2.6893424l11.5464853-.1995465c1.6190476-.031746 2.4580499 1.414966 2.4807256 2.7845805.0226758 1.2743764-.7619047 2.8390023-2.3854875 2.8707483l-7.936508.1360544.1269842 7.2063493 7.1247165-.122449c1.5328798-.0272109 2.5487529 1.2290249 2.5714286 2.5986394.0226757 1.2789116-.9478458 2.6621315-2.4807256 2.6893424l-7.1201814.122449.1360544 7.845805 8.5668934-.1496599c1.6235828-.0272108 2.5487529 1.414966 2.5714286 2.7845805.0226757 1.2743765-.8526077 2.8435374-2.4716553 2.8707483zm-24.367347-.6712018-5.2517007-11.4013606-2.6122449.0453515.1814059 10.3038549c.0226758 1.5510204-1.2244898 2.3945578-2.9387755 2.4263038-1.4421768.0226758-3.0793651-.6802721-3.1065759-2.3174603l-.4671202-26.7256236c-.0226758-1.3696145.7664399-2.6575963 2.3900227-2.6893424l8.4761904-.1451247c4.4172336-.0770975 8.9750567 2.5804989 9.0839003 8.7800454.0816326 4.6530612-2.399093 7.4376417-5.260771 8.9433106l5.0521542 10.1315193c1.0294784 2.0816326-1.5600907 3.7641723-3.3605442 3.8004535-.9070295.0136055-1.723356-.2448979-2.1859411-1.1519274zm35.7006803-16.6802721 1.8004535-.0317461c2.1632653-.0362811 5.6689342-1.0113378 5.5963719-4.9297052-.0544218-3.1927437-2.6031746-4.4263038-5.3968254-4.3764172l-2.1632653.0362812zm-43.6462585.7619047 1.8049887-.031746c2.1632653-.0362812 5.664399-1.0113379 5.5963718-4.9342404-.0589569-3.1882086-2.6031746-4.4217687-5.3968254-4.3764172l-2.1678004.0408163z" fill="#003e95"/></g></svg>